# xmcd CD database file
#
# Track frame offsets:
#	150
#	23309
#	35486
#
# Disc length: 766 seconds
#
# Revision: 0
# Processed by: cddbd v1.5.1PL2 Copyright (c) Steve Scherf et al.
# Submitted via: CDex 1.51
#
DISCID=1402fc03
DTITLE=maybelle - オレンジ色の煙
DYEAR=2002
DGENRE=Pop
TTITLE0=オレンジ色の煙
TTITLE1=Leaf
TTITLE2=空は待っている
EXTD=YEAR: 2002
EXTT0=
EXTT1=
EXTT2=
PLAYORDER=
